<?xml version="1.0" encoding="UTF-8" standalone="no"?>
<svg
   width="55"
   height="152"
   version="1.1"
   id="svg75"
   sodipodi:docname="rocket-312767.svg"
   viewBox="0 0 55 152"
   inkscape:version="1.1.1 (3bf5ae0d25, 2021-09-20)"
   xmlns:inkscape="http://www.inkscape.org/namespaces/inkscape"
   xmlns:sodipodi="http://sodipodi.sourceforge.net/DTD/sodipodi-0.dtd"
   xmlns="http://www.w3.org/2000/svg"
   xmlns:svg="http://www.w3.org/2000/svg"
   xmlns:rdf="http://www.w3.org/1999/02/22-rdf-syntax-ns#"
   xmlns:cc="http://creativecommons.org/ns#"
   xmlns:dc="http://purl.org/dc/elements/1.1/">
  <defs
     id="defs79" />
  <sodipodi:namedview
     pagecolor="#ffffff"
     bordercolor="#666666"
     borderopacity="1"
     objecttolerance="10"
     gridtolerance="10"
     guidetolerance="10"
     inkscape:pageopacity="0"
     inkscape:pageshadow="2"
     inkscape:window-width="1920"
     inkscape:window-height="1017"
     id="namedview77"
     showgrid="false"
     fit-margin-top="10"
     fit-margin-left="10"
     fit-margin-right="10"
     fit-margin-bottom="10"
     inkscape:zoom="3.8375"
     inkscape:cx="-28.403909"
     inkscape:cy="90.553746"
     inkscape:window-x="-8"
     inkscape:window-y="-8"
     inkscape:window-maximized="1"
     inkscape:current-layer="svg75"
     inkscape:pagecheckerboard="0" />
  <metadata
     id="metadata1906">image/svg+xml<rdf:RDF>
  <cc:Work
     rdf:about="">
    <dc:format>image/svg+xml</dc:format>
    <dc:type
       rdf:resource="http://purl.org/dc/dcmitype/StillImage" />
    <cc:license
       rdf:resource="http://creativecommons.org/publicdomain/zero/1.0/" />
  </cc:Work>
  <cc:License
     rdf:about="http://creativecommons.org/publicdomain/zero/1.0/">
    <cc:permits
       rdf:resource="http://creativecommons.org/ns#Reproduction" />
    <cc:permits
       rdf:resource="http://creativecommons.org/ns#Distribution" />
    <cc:permits
       rdf:resource="http://creativecommons.org/ns#DerivativeWorks" />
  </cc:License>
</rdf:RDF>
</metadata>
  <g
     transform="matrix(-0.08409879,-0.00101022,0.00240699,-0.20037678,39.322217,158.60169)"
     id="svg_29"
     style="fill:#29d029;fill-opacity:1;stroke:#485fc7;stroke-width:3.44467;stroke-miterlimit:4;stroke-dasharray:none;stroke-opacity:1">
    <metadata
       id="svg_28">image/svg+xml</metadata>
    <path
       style="fill:#ef9001;fill-opacity:1;fill-rule:evenodd;stroke:#485fc7;stroke-width:3.44467;stroke-miterlimit:4;stroke-dasharray:none;stroke-opacity:1"
       inkscape:connector-curvature="0"
       d="M 58.95454,347.23395 C -9.037541,242.85088 73.060089,233.52847 52.118831,90.624024 103.47625,158.04097 117.81456,240.7354 139.37527,265.19403 c 14.88034,19.20859 22.2192,42.3949 20.21849,66.21726 -0.20173,18.85366 23.6251,41.6983 17.10981,59.3005 -34.64389,-27.74878 -94.232524,-9.66226 -117.74903,-43.47784 z"
       id="svg_27" />
    <path
       style="fill:#ef9001;fill-opacity:1;fill-rule:evenodd;stroke:#485fc7;stroke-width:3.44467;stroke-miterlimit:4;stroke-dasharray:none;stroke-opacity:1"
       inkscape:connector-curvature="0"
       d="m 161.7809,377.71368 c 0.39303,-19.99023 -23.79616,-28.66238 -33.52622,-44.27447 -16.1147,-11.92496 -21.21929,-30.48685 -21.57498,-48.76584 -1.3098,-29.23367 24.74826,-203.54258 62.71112,-250.35614 -14.5484,71.88596 21.56903,167.64252 43.88286,199.32079 15.09956,24.61357 20.77625,52.95274 15.3373,80.83769 -2.67223,22.24722 -21.10112,35.61532 -31.07051,55.56906 -9.97252,12.01678 -23.5441,13.15533 -35.75957,7.66891 z"
       id="svg_26" />
    <path
       style="fill:#ef9001;fill-opacity:1;fill-rule:evenodd;stroke:#485fc7;stroke-width:3.44467;stroke-miterlimit:4;stroke-dasharray:none;stroke-opacity:1"
       inkscape:connector-curvature="0"
       d="m 175.5607,387.49258 c 5.78662,-17.36703 -5.66486,-44.89495 -9.27092,-61.00222 -9.78333,-14.50379 -8.83797,-32.01615 -4.1256,-48.07773 6.93673,-25.87512 8.08193,-147.98087 120.02512,-205.321894 -86.81754,85.182644 -29.17041,154.410894 -19.77231,187.745504 5.49048,25.33325 2.68381,51.73715 -9.69748,74.51981 -17.09363,31.45379 -62.73308,48.78924 -77.15881,52.13653 z"
       id="svg_25" />
    <path
       style="fill:#eef289;fill-opacity:1;fill-rule:evenodd;stroke:#485fc7;stroke-width:3.44467;stroke-miterlimit:4;stroke-dasharray:none;stroke-opacity:1"
       inkscape:connector-curvature="0"
       d="m 157.11595,377.31308 c 0.29729,-16.31976 -17.99898,-23.39954 -25.35861,-36.14505 -12.18886,-9.73538 -16.04987,-24.88901 -16.31891,-39.81174 -0.99071,-23.86596 23.32575,-150.04612 42.82692,-204.387219 -13.30745,123.179279 20.92102,136.860989 37.79878,162.722669 11.42102,20.09418 15.71477,43.22989 11.60085,65.99475 -2.02123,18.16233 -10.73396,34.71701 -18.27463,51.00696 -7.54301,9.81034 -23.03485,5.09867 -32.2744,0.61963 z"
       id="svg_24" />
    <path
       style="fill:#eef289;fill-opacity:1;fill-rule:evenodd;stroke:#485fc7;stroke-width:3.44467;stroke-miterlimit:4;stroke-dasharray:none;stroke-opacity:1"
       inkscape:connector-curvature="0"
       d="m 86.962914,353.92651 c -69.840643,-71.70462 6.256737,-76.69827 -13.112495,-175.17469 23.002991,46.41659 42.077881,81.28575 50.453851,114.24382 12.39538,11.63806 55.22529,82.68295 52.65835,95.56353 -26.99225,-15.36667 -69.8897,-13.98593 -89.999706,-34.63266 z"
       id="svg_23" />
    <path
       style="fill:#eef289;fill-opacity:1;fill-rule:evenodd;stroke:#485fc7;stroke-width:3.44467;stroke-miterlimit:4;stroke-dasharray:none;stroke-opacity:1"
       inkscape:connector-curvature="0"
       d="m 168.06467,344.26385 c -7.3404,-10.88214 -6.63111,-24.0216 -3.09543,-36.07254 5.2046,-19.414 28.07133,-127.32403 60.7381,-150.79486 -23.59104,44.36028 7.42985,112.59653 14.4812,137.60736 4.11949,19.00745 5.27165,41.48987 -7.27597,55.91193 -18.95542,21.78708 -42.88182,34.47507 -56.29,37.51706 -8.52365,5.98154 -5.85229,-32.08371 -8.5579,-44.16895 z"
       id="svg_21" />
    <path
       style="fill:#29d029;fill-opacity:1;fill-rule:evenodd;stroke:#485fc7;stroke-width:3.44467;stroke-miterlimit:4;stroke-dasharray:none;stroke-opacity:1"
       inkscape:connector-curvature="0"
       d=""
       id="svg_16" />
  </g>
  <g
     transform="matrix(1.1072577,1.1275209,-1.1275209,1.1072577,-250.32181,-722.33393)"
     id="svg_1">
    <path
       style="fill:#ececec;fill-rule:evenodd;stroke:#485fc7;stroke-width:0.282983;stroke-miterlimit:4;stroke-dasharray:none;stroke-opacity:1"
       inkscape:connector-curvature="0"
       id="path3217"
       d="m 450.65453,194.82957 c -0.26905,3.18956 -1.32034,28.74717 32.24621,42.95495 l 10.04657,-9.80807 0.0369,-0.036 c -13.39731,-33.898 -38.97089,-33.45916 -42.1661,-33.26682 l -0.16382,0.15573 z" />
    <path
       style="fill:#485fc7;fill-opacity:1;fill-rule:evenodd;stroke:#485fc7;stroke-width:0.282983;stroke-miterlimit:4;stroke-dasharray:none;stroke-opacity:1"
       inkscape:connector-curvature="0"
       d="m 453.58112,211.25934 -2.32083,-7.26562 -0.69143,-7.52919 0.18202,-1.74615 7.6774,0.5884 7.72615,2.22992 1.25255,0.82825 -13.64144,13.19699"
       id="path2419" />
    <path
       style="fill:#ff0000;fill-rule:evenodd;stroke:#485fc7;stroke-width:0.282983;stroke-miterlimit:4;stroke-dasharray:none;stroke-opacity:1"
       inkscape:connector-curvature="0"
       d="m 470.36991,231.18475 c 0,0 -6.10306,5.79892 13.77579,18.88546 0,0 -13.22085,-14.22443 -8.36667,-15.61844"
       id="path2408" />
    <path
       style="fill:#ff0000;fill-rule:evenodd;stroke:#485fc7;stroke-width:0.282983;stroke-miterlimit:4;stroke-dasharray:none;stroke-opacity:1"
       inkscape:connector-curvature="0"
       id="path2410"
       d="m 486.70478,215.23766 c 0,0 5.9438,-5.96196 18.54907,14.22549 0,0 -13.90273,-13.55872 -15.41295,-8.73943" />
    <path
       style="fill:#b3b3b3;fill-rule:evenodd;stroke:#485fc7;stroke-width:0.282983;stroke-miterlimit:4;stroke-dasharray:none;stroke-opacity:1"
       inkscape:connector-curvature="0"
       d="m 478.1089,235.81515 4.79437,1.95519 10.05454,-9.93645 -2.0633,-4.50078 z"
       id="path2423" />
    <path
       style="fill:none;fill-rule:evenodd;stroke:#485fc7;stroke-width:0.282983;stroke-miterlimit:4;stroke-dasharray:none;stroke-opacity:1"
       inkscape:connector-curvature="0"
       d="m 453.70173,211.38289 13.35384,-13.03683"
       id="path2394" />
    <path
       style="fill:#b3b3b3;fill-rule:nonzero;stroke:#485fc7;stroke-width:0.282983;stroke-linecap:round;stroke-miterlimit:4;stroke-dasharray:none;stroke-opacity:1"
       inkscape:connector-curvature="0"
       stroke-miterlimit="4"
       id="path2400"
       d="m 473.19884,210.59832 a 5.4388586,5.0031061 45.688221 1 1 -7.15994,6.98996 5.4388586,5.0031061 45.688221 1 1 7.15994,-6.98996 z" />
    <path
       style="fill:#80e5ff;fill-rule:nonzero;stroke:#485fc7;stroke-width:0.282983;stroke-linecap:round;stroke-miterlimit:4;stroke-dasharray:none;stroke-opacity:1"
       inkscape:connector-curvature="0"
       stroke-miterlimit="4"
       d="m 471.9487,211.81878 a 3.5395813,3.255995 45.688221 1 1 -4.65965,4.54903 3.5395813,3.255995 45.688221 1 1 4.65965,-4.54903 z"
       id="path2402" />
    <path
       style="fill:none;fill-rule:evenodd;stroke:#485fc7;stroke-width:0.282983;stroke-miterlimit:4;stroke-dasharray:none;stroke-opacity:1"
       inkscape:connector-curvature="0"
       d="m 478.488,235.42795 12.61511,-12.31564"
       id="path2417" />
    <path
       style="fill:#ff0000;fill-rule:nonzero;stroke:#485fc7;stroke-width:0.282983;stroke-linecap:round;stroke-miterlimit:4;stroke-dasharray:none;stroke-opacity:1"
       inkscape:connector-curvature="0"
       stroke-miterlimit="4"
       d="m 477.8966,223.59545 1.02285,-0.99856 16.28305,16.679 -1.02285,0.99856 z"
       id="rect2414" />
    <path
       style="fill:none;fill-rule:nonzero;stroke:#485fc7;stroke-width:0.282983;stroke-linecap:round;stroke-miterlimit:4;stroke-dasharray:none;stroke-opacity:1"
       inkscape:connector-curvature="0"
       stroke-miterlimit="4"
       id="path2431"
       d="m 471.9487,211.81878 a 3.5395813,3.255995 45.688221 1 1 -4.65965,4.54903 3.5395813,3.255995 45.688221 1 1 4.65965,-4.54903 z" />
    <path
       style="fill:none;fill-rule:evenodd;stroke:#485fc7;stroke-width:0.282983;stroke-miterlimit:4;stroke-dasharray:none;stroke-opacity:1"
       inkscape:connector-curvature="0"
       d="m 486.70478,215.23766 c 0,0 5.9438,-5.96196 18.54907,14.22549 0,0 -13.90273,-13.55872 -15.41295,-8.73943"
       id="path3211" />
    <path
       style="fill:none;fill-rule:evenodd;stroke:#485fc7;stroke-width:0.282983;stroke-miterlimit:4;stroke-dasharray:none;stroke-opacity:1"
       inkscape:connector-curvature="0"
       id="path3215"
       d="m 470.36991,231.18475 c 0,0 -6.10306,5.79892 13.77579,18.88546 0,0 -13.22085,-14.22443 -8.36667,-15.61844" />
    <path
       style="fill:none;fill-rule:evenodd;stroke:#485fc7;stroke-width:0.282983;stroke-miterlimit:4;stroke-dasharray:none;stroke-opacity:1"
       inkscape:connector-curvature="0"
       d="m 450.65453,194.82957 c -0.26905,3.18956 -1.32034,28.74717 32.24621,42.95495 l 10.04657,-9.80807 0.0369,-0.036 c -13.39731,-33.898 -38.97089,-33.45916 -42.1661,-33.26682 l -0.16382,0.15573 z"
       id="path2382" />
  </g>
  <path
     style="fill:#e73900;fill-rule:evenodd;stroke-width:2.1321pt"
     inkscape:connector-curvature="0"
     d=""
     id="svg_1756" />
  <path
     style="fill:#e73900;fill-rule:evenodd;stroke-width:2.1321pt"
     inkscape:connector-curvature="0"
     d=""
     id="svg_1755" />
  <path
     style="fill:#e73900;fill-rule:evenodd;stroke-width:2.1321pt"
     inkscape:connector-curvature="0"
     d=""
     id="svg_1754" />
  <path
     style="fill:#e78c00;fill-rule:evenodd;stroke-width:2.1321pt"
     inkscape:connector-curvature="0"
     d=""
     id="svg_1753" />
  <path
     style="fill:#e78c00;fill-rule:evenodd;stroke-width:2.1321pt"
     inkscape:connector-curvature="0"
     d=""
     id="svg_1752" />
  <path
     style="fill:#e7e100;fill-rule:evenodd;stroke-width:2.1321pt"
     inkscape:connector-curvature="0"
     d=""
     id="svg_1751" />
  <path
     style="fill:#e78c00;fill-rule:evenodd;stroke-width:2.1321pt"
     inkscape:connector-curvature="0"
     d=""
     id="svg_1750" />
  <path
     style="fill:#e7e100;fill-rule:evenodd;stroke-width:2.1321pt"
     inkscape:connector-curvature="0"
     d=""
     id="svg_1749" />
  <path
     style="fill:#e7e100;fill-rule:evenodd;stroke-width:2.1321pt"
     inkscape:connector-curvature="0"
     d=""
     id="svg_1748" />
  <path
     style="fill:#ffff9e;fill-rule:evenodd;stroke-width:2.1321pt"
     inkscape:connector-curvature="0"
     d=""
     id="svg_1747" />
  <path
     style="fill:#ffff9e;fill-rule:evenodd;stroke-width:2.1321pt"
     inkscape:connector-curvature="0"
     d=""
     id="svg_1746" />
  <path
     style="fill:#ffff9e;fill-rule:evenodd;stroke-width:2.1321pt"
     inkscape:connector-curvature="0"
     d=""
     id="svg_1745" />
  <path
     style="fill:#e73900;fill-rule:evenodd;stroke-width:2.1321pt"
     inkscape:connector-curvature="0"
     d=""
     id="svg_13" />
  <path
     style="fill:#e73900;fill-rule:evenodd;stroke-width:2.1321pt"
     inkscape:connector-curvature="0"
     d=""
     id="svg_12" />
  <path
     style="fill:#e73900;fill-rule:evenodd;stroke-width:2.1321pt"
     inkscape:connector-curvature="0"
     d=""
     id="svg_11" />
  <path
     style="fill:#e78c00;fill-rule:evenodd;stroke-width:2.1321pt"
     inkscape:connector-curvature="0"
     d=""
     id="svg_10" />
  <path
     style="fill:#e78c00;fill-rule:evenodd;stroke-width:2.1321pt"
     inkscape:connector-curvature="0"
     d=""
     id="svg_9" />
  <path
     style="fill:#e7e100;fill-rule:evenodd;stroke-width:2.1321pt"
     inkscape:connector-curvature="0"
     d=""
     id="svg_8" />
  <path
     style="fill:#e78c00;fill-rule:evenodd;stroke-width:2.1321pt"
     inkscape:connector-curvature="0"
     d=""
     id="svg_7" />
  <path
     style="fill:#e7e100;fill-rule:evenodd;stroke-width:2.1321pt"
     inkscape:connector-curvature="0"
     d=""
     id="svg_6" />
  <path
     style="fill:#e7e100;fill-rule:evenodd;stroke-width:2.1321pt"
     inkscape:connector-curvature="0"
     d=""
     id="svg_5" />
  <path
     style="fill:#ffff9e;fill-rule:evenodd;stroke-width:2.1321pt"
     inkscape:connector-curvature="0"
     d=""
     id="svg_4" />
  <g
     id="svg_1758"
     transform="matrix(2.1320995,0,0,2.1320995,-686.53718,-194.38429)" />
  <g
     id="svg_15"
     transform="matrix(2.1320995,0,0,2.1320995,-686.53718,-194.38429)">
    <path
       style="fill:#ffff9e;fill-rule:evenodd;stroke-width:1pt"
       inkscape:connector-curvature="0"
       d=""
       id="svg_3" />
    <path
       style="fill:#ffff9e;fill-rule:evenodd;stroke-width:1pt"
       inkscape:connector-curvature="0"
       d=""
       id="svg_2" />
  </g>
</svg>
